<mxfile host="app.diagrams.net" agent="Mozilla/5.0 (Windows NT 10.0; Win64; x64) AppleWebKit/537.36 (KHTML, like Gecko) Chrome/140.0.0.0 Safari/537.36" version="28.2.2">
  <diagram name="Page-1" id="AGJRzT_OhnzU_PfbtV0n">
    <mxGraphModel dx="1240" dy="810" grid="1" gridSize="10" guides="1" tooltips="1" connect="1" arrows="1" fold="1" page="1" pageScale="1" pageWidth="850" pageHeight="1100" math="0" shadow="0">
      <root>
        <mxCell id="0" />
        <mxCell id="1" parent="0" />
        <mxCell id="HV2ZFBBPWrTVuAOWlXsi-1" value="Student" style="rounded=0;whiteSpace=wrap;html=1;fontSize=20;" parent="1" vertex="1">
          <mxGeometry x="-160" y="400" width="120" height="60" as="geometry" />
        </mxCell>
        <mxCell id="HV2ZFBBPWrTVuAOWlXsi-2" value="Course" style="rounded=0;whiteSpace=wrap;html=1;fontSize=19;" parent="1" vertex="1">
          <mxGeometry x="-350" y="230" width="120" height="60" as="geometry" />
        </mxCell>
        <mxCell id="HV2ZFBBPWrTVuAOWlXsi-3" value="Department" style="rounded=0;whiteSpace=wrap;html=1;fontSize=20;" parent="1" vertex="1">
          <mxGeometry x="480" y="30" width="120" height="60" as="geometry" />
        </mxCell>
        <mxCell id="HV2ZFBBPWrTVuAOWlXsi-4" value="Instructor" style="rounded=0;whiteSpace=wrap;html=1;fontSize=20;" parent="1" vertex="1">
          <mxGeometry x="470" y="140" width="120" height="60" as="geometry" />
        </mxCell>
        <mxCell id="HV2ZFBBPWrTVuAOWlXsi-6" value="Payment" style="rounded=0;whiteSpace=wrap;html=1;fontSize=20;" parent="1" vertex="1">
          <mxGeometry x="200" y="100" width="120" height="60" as="geometry" />
        </mxCell>
        <mxCell id="HV2ZFBBPWrTVuAOWlXsi-8" value="Grade" style="rounded=0;whiteSpace=wrap;html=1;fontSize=20;" parent="1" vertex="1">
          <mxGeometry x="100" y="550" width="120" height="60" as="geometry" />
        </mxCell>
        <mxCell id="HV2ZFBBPWrTVuAOWlXsi-9" value="Enrollment" style="rounded=0;whiteSpace=wrap;html=1;fontSize=20;" parent="1" vertex="1">
          <mxGeometry x="-160" y="60" width="120" height="60" as="geometry" />
        </mxCell>
        <mxCell id="VZnbxfNPQ8UnDCiT-unX-2" value="Schedule" style="rounded=0;whiteSpace=wrap;html=1;fontSize=19;" vertex="1" parent="1">
          <mxGeometry x="-160" y="230" width="120" height="60" as="geometry" />
        </mxCell>
        <mxCell id="VZnbxfNPQ8UnDCiT-unX-3" value="StudentID" style="ellipse;whiteSpace=wrap;html=1;fontSize=14;" vertex="1" parent="1">
          <mxGeometry x="-485" y="100" width="120" height="60" as="geometry" />
        </mxCell>
        <mxCell id="VZnbxfNPQ8UnDCiT-unX-4" value="FirstName" style="ellipse;whiteSpace=wrap;html=1;fontSize=14;" vertex="1" parent="1">
          <mxGeometry x="-485" y="200" width="120" height="60" as="geometry" />
        </mxCell>
        <mxCell id="VZnbxfNPQ8UnDCiT-unX-5" value="LastName" style="ellipse;whiteSpace=wrap;html=1;fontSize=14;" vertex="1" parent="1">
          <mxGeometry x="-485" y="290" width="120" height="60" as="geometry" />
        </mxCell>
        <mxCell id="VZnbxfNPQ8UnDCiT-unX-8" value="Birthdate" style="ellipse;whiteSpace=wrap;html=1;fontSize=14;" vertex="1" parent="1">
          <mxGeometry x="-630" y="100" width="120" height="60" as="geometry" />
        </mxCell>
        <mxCell id="VZnbxfNPQ8UnDCiT-unX-9" value="Age" style="ellipse;whiteSpace=wrap;html=1;fontSize=20;" vertex="1" parent="1">
          <mxGeometry x="-630" y="200" width="120" height="60" as="geometry" />
        </mxCell>
        <mxCell id="VZnbxfNPQ8UnDCiT-unX-10" value="ContactNumber" style="ellipse;whiteSpace=wrap;html=1;fontSize=14;" vertex="1" parent="1">
          <mxGeometry x="-630" y="290" width="120" height="60" as="geometry" />
        </mxCell>
        <mxCell id="VZnbxfNPQ8UnDCiT-unX-11" value="Email" style="ellipse;whiteSpace=wrap;html=1;fontSize=20;" vertex="1" parent="1">
          <mxGeometry x="-630" y="380" width="120" height="60" as="geometry" />
        </mxCell>
        <mxCell id="VZnbxfNPQ8UnDCiT-unX-12" value="Address" style="ellipse;whiteSpace=wrap;html=1;fontSize=20;" vertex="1" parent="1">
          <mxGeometry x="-470" y="460" width="120" height="60" as="geometry" />
        </mxCell>
        <mxCell id="VZnbxfNPQ8UnDCiT-unX-13" value="GuardianContact" style="ellipse;whiteSpace=wrap;html=1;fontSize=14;" vertex="1" parent="1">
          <mxGeometry x="-630" y="550" width="120" height="60" as="geometry" />
        </mxCell>
        <mxCell id="VZnbxfNPQ8UnDCiT-unX-14" value="GuardianName" style="ellipse;whiteSpace=wrap;html=1;fontSize=14;" vertex="1" parent="1">
          <mxGeometry x="-630" y="470" width="120" height="60" as="geometry" />
        </mxCell>
        <mxCell id="VZnbxfNPQ8UnDCiT-unX-19" value="Gender" style="ellipse;whiteSpace=wrap;html=1;fontSize=20;" vertex="1" parent="1">
          <mxGeometry x="-470" y="380" width="120" height="60" as="geometry" />
        </mxCell>
      </root>
    </mxGraphModel>
  </diagram>
</mxfile>
